<svg width="18" height="18" viewBox="0 0 18 18" fill="none" xmlns="http://www.w3.org/2000/svg">
<circle cx="9" cy="9" r="9" fill="#343E4A"/>
<path fill-rule="evenodd" clip-rule="evenodd" d="M9.31043 4.50005C10.3965 4.49414 11.4941 4.98462 11.5 6.05421C11.5058 6.98197 10.9656 7.35426 10.4139 7.36017C9.86217 7.36017 9.82732 7.07652 9.82732 7.07652C9.82732 7.07652 10.472 6.58604 10.472 6.11921C10.472 5.87693 10.2919 5.20917 9.29301 5.21508C7.90495 5.22099 7.14995 5.88874 7.14995 7.08834C7.15575 8.47112 11.198 8.93796 11.2038 10.7226C11.2096 12.6313 9.25816 13.494 7.52745 13.5C6.62144 13.5059 6.02324 12.9622 6.01743 12.0994C6.01163 11.083 6.48786 10.043 7.67264 10.0371C8.13146 10.0371 8.20115 10.4389 8.20115 10.5335C8.20115 10.5335 7.01056 10.8703 7.01637 12.0935C7.01637 12.3181 7.24868 12.7258 7.80622 12.7258C8.36377 12.7258 10.0248 12.3181 10.019 10.8171C10.019 9.42252 6.00582 9.23342 6.00001 7.07061C5.9942 4.63597 8.39861 4.50596 9.31043 4.50005Z" fill="#D4E2EF"/>
</svg>
