<svg width="36" height="36" viewBox="0 0 36 36" fill="none" xmlns="http://www.w3.org/2000/svg">
<circle cx="18" cy="18" r="18" fill="#1475E1"/>
<path fill-rule="evenodd" clip-rule="evenodd" d="M18.6209 9.00011C20.793 8.98829 22.9883 9.96923 22.9999 12.1084C23.0115 13.9639 21.9313 14.7085 20.8278 14.7203C19.7243 14.7203 19.6546 14.153 19.6546 14.153C19.6546 14.153 20.944 13.1721 20.944 12.2384C20.944 11.7539 20.5839 10.4183 18.586 10.4302C15.8099 10.442 14.2999 11.7775 14.2999 14.1767C14.3115 16.9422 22.3959 17.8759 22.4075 21.4451C22.4191 25.2626 18.5163 26.9881 15.0549 26.9999C13.2429 27.0117 12.0465 25.9244 12.0349 24.1989C12.0233 22.1661 12.9757 20.086 15.3453 20.0742C16.2629 20.0742 16.4023 20.8778 16.4023 21.0669C16.4023 21.0669 14.0211 21.7406 14.0327 24.1871C14.0327 24.6362 14.4974 25.4517 15.6124 25.4517C16.7275 25.4517 20.0496 24.6362 20.038 21.6342C20.038 18.845 12.0116 18.4668 12 14.1412C11.9884 9.27193 16.7972 9.01192 18.6209 9.00011Z" fill="white"/>
</svg>
