<svg width="71" height="37" viewBox="0 0 71 37" fill="none" xmlns="http://www.w3.org/2000/svg">
<path fill-rule="evenodd" clip-rule="evenodd" d="M13.2877 0.000212384C17.647 -0.0235825 22.0529 1.95139 22.0762 6.25827C22.0995 9.99406 19.9315 11.4931 17.7169 11.5169C15.5023 11.5169 15.3624 10.3748 15.3624 10.3748C15.3624 10.3748 17.95 8.3998 17.95 6.52001C17.95 5.54442 17.2274 2.8556 13.2178 2.87939C7.64627 2.90319 4.61575 5.59201 4.61575 10.4224C4.63907 15.9904 20.864 17.8702 20.8873 25.0562C20.9106 32.742 13.0779 36.216 6.13101 36.2398C2.49439 36.2636 0.0932889 34.0745 0.0699772 30.6004C0.0466655 26.5077 1.95822 22.3198 6.71381 22.296C8.55543 22.296 8.83517 23.9141 8.83517 24.2948C8.83517 24.2948 4.05627 25.6511 4.07959 30.5766C4.07959 31.4808 5.01205 33.1227 7.24998 33.1227C9.4879 33.1227 16.155 31.4808 16.1317 25.4369C16.1317 19.8213 0.0233538 19.0599 4.2157e-05 10.351C-0.0232695 0.547495 9.62777 0.0240073 13.2877 0.000212384ZM50.9827 5.42545C51.5422 5.13991 55.1089 4.44986 54.969 7.35283C54.8291 10.2558 52.6844 15.3003 52.3814 17.5132C55.2953 16.0142 59.3982 10.9221 59.3982 10.9221C59.3982 10.9221 62.3122 11.3266 61.403 13.135C60.4939 14.9434 54.6193 19.4168 54.6193 19.4168C54.6193 19.4168 55.9481 32.3612 63.6409 32.3137C67.8603 32.2899 69.6787 30.4101 70.4479 29.7438C70.6578 29.5772 70.7976 29.5297 70.8676 29.6724C71.0307 30.0769 71.2172 31.4095 70.2614 32.504C69.4222 33.4558 67.4174 34.598 63.5244 34.6218C56.5309 34.6456 52.6378 28.9348 51.6121 20.4162C50.8428 22.9147 50.9361 26.936 50.7962 28.911C50.5864 29.2917 46.6234 30.9098 46.3204 28.1733C46.297 28.0068 46.297 27.7688 46.3204 27.5071C45.5977 28.5541 44.5953 29.6724 43.6395 29.6724C41.9378 29.6724 41.1918 28.2209 40.8887 27.4595C40.6556 27.7212 38.7674 29.6962 36.343 29.6962C35.2706 29.6962 33.6621 29.2203 33.0094 27.4833C31.7739 28.4113 29.5826 29.72 27.0649 29.72C24.3607 29.72 23.7313 28.0782 23.708 26.6743C23.708 24.4851 25.3165 17.894 25.3165 17.894C25.3165 17.894 22.1695 19.2027 21.0738 19.2265C19.5819 19.2265 18.8359 16.3711 18.8359 16.2997C18.8359 16.2521 18.8592 16.2045 18.9291 16.1807C19.815 15.8476 26.2257 13.5871 26.2257 13.5871C26.2257 13.5871 27.4146 8.75673 27.6011 8.13806C27.7643 7.51939 28.6268 6.18688 29.6991 5.80616C30.3985 5.54442 31.4708 5.21129 32.0769 5.21129C32.3333 5.21129 32.5198 5.28268 32.5198 5.42545C32.5198 5.56821 30.9113 12.6115 30.9113 12.6115C30.9113 12.6115 34.2449 11.8025 35.4804 11.8025C36.4362 11.8025 36.9257 12.3973 36.4129 13.1588C35.9 13.9202 35.2706 14.7768 34.9443 15.1813C34.6179 15.5859 34.3848 15.6572 33.5456 15.8238C32.4499 16.038 29.9089 16.7042 29.9089 16.7042C29.9089 16.7042 27.9274 24.152 27.9274 25.4131C27.9274 26.127 28.1372 26.9598 29.0231 26.9598C29.8623 26.9598 31.4941 25.9604 32.6597 25.1752C32.8462 19.3692 37.2521 15.5145 40.7022 15.4907C41.8212 15.4907 41.4249 16.5852 42.6604 16.5852C42.777 16.5852 43.3598 16.5614 43.453 16.5614C43.9426 16.5614 44.502 16.6328 44.502 17.894C44.502 19.7262 43.4996 22.7243 43.4996 24.6041C43.4996 25.9604 43.6861 26.8884 44.1757 26.8884C45.0382 26.8884 45.994 25.6273 46.67 24.5327C47.8356 18.2271 50.9827 6.71037 50.9827 5.42545ZM66.5549 15.4193C68.9094 15.2051 70.378 16.5139 70.6578 17.2515C70.9142 17.9653 70.8909 19.6072 70.2381 20.8207C68.1867 24.5565 63.1048 23.8903 63.1048 23.8903C63.1048 23.8903 62.4987 26.8646 65.1562 26.8408C67.3941 26.8408 68.3965 25.6987 69.3523 24.7707C69.7253 24.7469 70.9375 26.0556 70.378 26.9122C69.9584 27.5785 67.6039 29.601 64.5734 29.6248C59.7945 29.6486 58.5823 25.4369 59.2117 22.4626C60.0043 18.7506 63.6642 15.681 66.5549 15.4193ZM41.2151 18.0129C38.3478 18.0129 33.9652 26.9122 37.322 26.8884C41.0053 26.8646 41.2151 19.7738 41.2151 18.1795V18.0129ZM67.7904 17.1563C65.8322 17.2277 63.6642 21.0111 63.4777 22.7005C66.3917 22.8195 67.9303 19.9165 68.0935 18.7982C68.2333 17.9416 68.28 17.1325 67.7904 17.1563Z" fill="white"/>
</svg>
