<svg width="210" height="40" viewBox="0 0 210 40" fill="none" xmlns="http://www.w3.org/2000/svg">
<rect x="0.5" y="0.5" width="100" height="39" rx="3.5" stroke="#25313F"/>
<path fill-rule="evenodd" clip-rule="evenodd" d="M38.9246 11.0001C41.1963 10.9877 43.4924 12.0169 43.5045 14.2614C43.5166 16.2082 42.3869 16.9894 41.2328 17.0018C40.0787 17.0018 40.0058 16.4066 40.0058 16.4066C40.0058 16.4066 41.3542 15.3774 41.3542 14.3978C41.3542 13.8893 40.9776 12.4881 38.8881 12.5005C35.9847 12.5129 34.4054 13.9141 34.4054 16.4314C34.4175 19.333 42.8728 20.3126 42.8849 24.0575C42.8971 28.0627 38.8152 29.8731 35.195 29.8855C33.2999 29.8979 32.0486 28.7571 32.0365 26.9467C32.0243 24.8139 33.0205 22.6314 35.4987 22.619C36.4585 22.619 36.6042 23.4623 36.6042 23.6607C36.6042 23.6607 34.1138 24.3675 34.126 26.9343C34.126 27.4055 34.6119 28.2611 35.7782 28.2611C36.9444 28.2611 40.4188 27.4055 40.4067 24.2559C40.4067 21.3294 32.0122 20.9326 32 16.3942C31.9879 11.2853 37.0173 11.0125 38.9246 11.0001ZM58.5684 13.8273C58.86 13.6785 60.7187 13.3189 60.6458 14.8318C60.5729 16.3446 59.4553 18.9734 59.2973 20.1266C60.8159 19.3454 62.954 16.6918 62.954 16.6918C62.954 16.6918 64.4725 16.9026 63.9987 17.845C63.525 18.7874 60.4636 21.1186 60.4636 21.1186C60.4636 21.1186 61.156 27.8643 65.165 27.8395C67.3638 27.8271 68.3114 26.8475 68.7123 26.5003C68.8216 26.4135 68.8945 26.3887 68.931 26.4631C69.016 26.6739 69.1132 27.3683 68.6151 27.9387C68.1778 28.4347 67.133 29.0299 65.1042 29.0423C61.4597 29.0547 59.431 26.0787 58.8964 21.6394C58.4956 22.9415 58.5441 25.0371 58.4713 26.0663C58.3619 26.2647 56.2967 27.1079 56.1388 25.6819C56.1266 25.5951 56.1266 25.4711 56.1388 25.3347C55.7622 25.8803 55.2398 26.4631 54.7417 26.4631C53.8549 26.4631 53.4661 25.7067 53.3082 25.3099C53.1867 25.4463 52.2027 26.4755 50.9393 26.4755C50.3805 26.4755 49.5422 26.2275 49.2021 25.3223C48.5582 25.8059 47.4163 26.4879 46.1042 26.4879C44.695 26.4879 44.367 25.6323 44.3549 24.9007C44.3549 23.7599 45.1931 20.325 45.1931 20.325C45.1931 20.325 43.5531 21.007 42.9821 21.0194C42.2046 21.0194 41.8159 19.5314 41.8159 19.4942C41.8159 19.4694 41.828 19.4446 41.8645 19.4322C42.3261 19.2586 45.6669 18.0806 45.6669 18.0806C45.6669 18.0806 46.2865 15.5634 46.3837 15.241C46.4687 14.9186 46.9182 14.2241 47.477 14.0257C47.8415 13.8893 48.4003 13.7157 48.7161 13.7157C48.8498 13.7157 48.947 13.7529 48.947 13.8273C48.947 13.9017 48.1087 17.5722 48.1087 17.5722C48.1087 17.5722 49.8459 17.1506 50.4898 17.1506C50.9879 17.1506 51.243 17.4606 50.9757 17.8574C50.7085 18.2542 50.3805 18.7006 50.2104 18.9114C50.0403 19.1222 49.9188 19.1594 49.4815 19.2462C48.9105 19.3578 47.5863 19.705 47.5863 19.705C47.5863 19.705 46.5537 23.5863 46.5537 24.2435C46.5537 24.6155 46.6631 25.0495 47.1247 25.0495C47.562 25.0495 48.4124 24.5287 49.0198 24.1195C49.117 21.0938 51.4131 19.085 53.211 19.0726C53.7941 19.0726 53.5876 19.643 54.2315 19.643C54.2922 19.643 54.5959 19.6306 54.6445 19.6306C54.8996 19.6306 55.1912 19.6678 55.1912 20.325C55.1912 21.2798 54.6688 22.8423 54.6688 23.8219C54.6688 24.5287 54.766 25.0123 55.0211 25.0123C55.4706 25.0123 55.9687 24.3551 56.321 23.7847C56.9284 20.4986 58.5684 14.497 58.5684 13.8273ZM66.6835 19.0354C67.9105 18.9238 68.6759 19.6058 68.8216 19.9902C68.9553 20.3622 68.9431 21.2178 68.603 21.8502C67.5339 23.7971 64.8856 23.4499 64.8856 23.4499C64.8856 23.4499 64.5697 24.9999 65.9546 24.9875C67.1209 24.9875 67.6433 24.3923 68.1413 23.9087C68.3357 23.8963 68.9674 24.5783 68.6759 25.0247C68.4572 25.3719 67.2302 26.4259 65.6509 26.4383C63.1605 26.4507 62.5288 24.2559 62.8568 22.7058C63.2698 20.7714 65.1771 19.1718 66.6835 19.0354ZM53.4783 20.387C51.984 20.387 49.7002 25.0247 51.4495 25.0123C53.369 24.9999 53.4783 21.3046 53.4783 20.4738V20.387ZM67.3274 19.9406C66.3069 19.9778 65.1771 21.9494 65.08 22.8299C66.5985 22.8919 67.4003 21.379 67.4853 20.7962C67.5582 20.3498 67.5825 19.9282 67.3274 19.9406Z" fill="white"/>
<rect x="109.5" y="0.5" width="100" height="39" rx="3.5" stroke="#25313F"/>
<mask id="mask0_150_1528" style="mask-type:luminance" maskUnits="userSpaceOnUse" x="134" y="12" width="52" height="17">
<path d="M185.35 12H134V28.2816H185.35V12Z" fill="white"/>
</mask>
<g mask="url(#mask0_150_1528)">
<mask id="mask1_150_1528" style="mask-type:luminance" maskUnits="userSpaceOnUse" x="134" y="12" width="52" height="17">
<path d="M185.368 12H134V28.2816H185.368V12Z" fill="white"/>
</mask>
<g mask="url(#mask1_150_1528)">
<path fill-rule="evenodd" clip-rule="evenodd" d="M134 12H139.504V15.6181H141.338V13.8091H143.173V12H148.677V17.4272H146.842V19.2362H145.007V21.0453H146.842V22.8544H148.677V28.2816H143.173V26.4725H141.338V24.6634H139.504V28.2816H134V12ZM170.691 12H176.195V15.6181H178.03V13.8091H179.864V12H185.368V17.4272H183.533V19.2362H181.699V21.0453H183.533V22.8544H185.368V28.2816H179.864V26.4725H178.03V24.6634H176.195V28.2816H170.691V12ZM150.511 12H156.015V28.2816H150.511V12ZM163.353 12H159.684V13.8091H157.849V26.4725H159.684V28.2816H163.353H168.857V22.8544H163.353V17.4272H168.857V12H163.353Z" fill="white"/>
</g>
</g>
</svg>
