<svg width="129" height="27" viewBox="0 0 129 27" fill="none" xmlns="http://www.w3.org/2000/svg">
<rect x="63.874" y="1.25195" width="1.25243" height="25.0485" rx="0.626214" fill="white" fill-opacity="0.4"/>
<path fill-rule="evenodd" clip-rule="evenodd" d="M9.42498 0.000150644C12.517 -0.0167271 15.6421 1.38413 15.6587 4.439C15.6752 7.0888 14.1375 8.1521 12.5666 8.16897C10.9958 8.16897 10.8966 7.35884 10.8966 7.35884C10.8966 7.35884 12.732 5.95799 12.732 4.62465C12.732 3.93266 12.2194 2.02548 9.37537 2.04236C5.42351 2.05923 3.27396 3.96642 3.27396 7.3926C3.29049 11.342 14.7989 12.6753 14.8154 17.7724C14.8319 23.2239 9.27617 25.6881 4.34873 25.7049C1.76927 25.7218 0.0661699 24.1691 0.0496349 21.7049C0.0330999 18.8019 1.38897 15.8315 4.76211 15.8146C6.06838 15.8146 6.2668 16.9623 6.2668 17.2323C6.2668 17.2323 2.87712 18.1943 2.89366 21.688C2.89366 22.3294 3.55506 23.494 5.14242 23.494C6.72978 23.494 11.4588 22.3294 11.4423 18.0424C11.4423 14.0593 0.0165649 13.5192 2.9902e-05 7.34197C-0.0165051 0.388339 6.82899 0.0170284 9.42498 0.000150644ZM36.1621 3.84827C36.5589 3.64574 39.0888 3.15629 38.9896 5.21537C38.8904 7.27446 37.3691 10.8525 37.1542 12.4222C39.2211 11.3589 42.1312 7.74703 42.1312 7.74703C42.1312 7.74703 44.1981 8.03395 43.5532 9.31666C42.9084 10.5994 38.7415 13.7724 38.7415 13.7724C38.7415 13.7724 39.684 22.9539 45.1406 22.9201C48.1334 22.9032 49.4231 21.5699 49.9688 21.0973C50.1176 20.9792 50.2168 20.9454 50.2664 21.0467C50.3822 21.3336 50.5145 22.2788 49.8365 23.0551C49.2413 23.7302 47.8193 24.5404 45.0579 24.5573C40.0974 24.5741 37.3361 20.5235 36.6085 14.4812C36.0629 16.2534 36.129 19.1057 36.0298 20.5066C35.881 20.7766 33.07 21.9243 32.8551 19.9834C32.8385 19.8652 32.8385 19.6965 32.8551 19.5108C32.3425 20.2534 31.6315 21.0467 30.9536 21.0467C29.7465 21.0467 29.2174 20.0171 29.0024 19.4771C28.8371 19.6627 27.4977 21.0636 25.7781 21.0636C25.0175 21.0636 23.8766 20.726 23.4136 19.4939C22.5372 20.1522 20.9829 21.0804 19.1972 21.0804C17.2791 21.0804 16.8327 19.9159 16.8161 18.9201C16.8161 17.3673 17.957 12.6922 17.957 12.6922C17.957 12.6922 15.7248 13.6205 14.9477 13.6374C13.8894 13.6374 13.3603 11.612 13.3603 11.5614C13.3603 11.5276 13.3768 11.4939 13.4265 11.477C14.0548 11.2407 18.6019 9.63734 18.6019 9.63734C18.6019 9.63734 19.4452 6.21116 19.5775 5.77234C19.6932 5.33351 20.305 4.38836 21.0656 4.11832C21.5617 3.93266 22.3223 3.69637 22.7522 3.69637C22.9341 3.69637 23.0664 3.74701 23.0664 3.84827C23.0664 3.94954 21.9254 8.94535 21.9254 8.94535C21.9254 8.94535 24.2899 8.37151 25.1663 8.37151C25.8442 8.37151 26.1915 8.79345 25.8277 9.33354C25.4639 9.87363 25.0175 10.4812 24.786 10.7681C24.5545 11.0551 24.3892 11.1057 23.7939 11.2238C23.0168 11.3757 21.2144 11.8483 21.2144 11.8483C21.2144 11.8483 19.809 17.1311 19.809 18.0256C19.809 18.5319 19.9578 19.1226 20.5861 19.1226C21.1814 19.1226 22.3388 18.4138 23.1656 17.8568C23.2978 13.7386 26.423 11.0044 28.8701 10.9876C29.6638 10.9876 29.3827 11.7639 30.2591 11.7639C30.3418 11.7639 30.7551 11.7471 30.8213 11.7471C31.1685 11.7471 31.5653 11.7977 31.5653 12.6922C31.5653 13.9918 30.8543 16.1184 30.8543 17.4517C30.8543 18.4138 30.9866 19.072 31.3339 19.072C31.9457 19.072 32.6236 18.1775 33.1031 17.4011C33.9299 12.9285 36.1621 4.75967 36.1621 3.84827ZM47.2075 10.9369C48.8775 10.785 49.9192 11.7133 50.1176 12.2365C50.2995 12.7428 50.283 13.9074 49.82 14.7682C48.3649 17.418 44.7603 16.9454 44.7603 16.9454C44.7603 16.9454 44.3304 19.0551 46.2154 19.0382C47.8027 19.0382 48.5137 18.2281 49.1917 17.5699C49.4562 17.553 50.316 18.4813 49.9192 19.0889C49.6216 19.5614 47.9515 20.9961 45.802 21.0129C42.4123 21.0298 41.5525 18.0424 41.9989 15.9327C42.5611 13.2998 45.1571 11.1226 47.2075 10.9369ZM29.2339 12.7766C27.2001 12.7766 24.0915 19.0889 26.4726 19.072C29.0851 19.0551 29.2339 14.0255 29.2339 12.8947V12.7766ZM48.0838 12.169C46.6949 12.2196 45.1571 14.9032 45.0248 16.1015C47.0917 16.1859 48.183 14.1268 48.2988 13.3336C48.398 12.726 48.431 12.1521 48.0838 12.169Z" fill="white"/>
<g clip-path="url(#clip0_150_1416)">
<mask id="mask0_150_1416" style="mask-type:luminance" maskUnits="userSpaceOnUse" x="77" y="5" width="52" height="17">
<path d="M129 5.00977H77.6504V21.2913H129V5.00977Z" fill="white"/>
</mask>
<g mask="url(#mask0_150_1416)">
<mask id="mask1_150_1416" style="mask-type:luminance" maskUnits="userSpaceOnUse" x="77" y="5" width="53" height="17">
<path d="M129.018 5.00977H77.6504V21.2913H129.018V5.00977Z" fill="white"/>
</mask>
<g mask="url(#mask1_150_1416)">
<path fill-rule="evenodd" clip-rule="evenodd" d="M77.6504 5.00977H83.1541V8.62789H84.9886V6.81883H86.8232V5.00977H92.3269V10.4369H90.4923V12.246H88.6578V14.0551H90.4923V15.8641H92.3269V21.2913H86.8232V19.4823H84.9886V17.6732H83.1541V21.2913H77.6504V5.00977ZM114.342 5.00977H119.845V8.62789H121.68V6.81883H123.515V5.00977H129.018V10.4369H127.184V12.246H125.349V14.0551H127.184V15.8641H129.018V21.2913H123.515V19.4823H121.68V17.6732H119.845V21.2913H114.342V5.00977ZM94.1615 5.00977H99.6652V21.2913H94.1615V5.00977ZM107.003 5.00977H103.334V6.81883H101.5V19.4823H103.334V21.2913H107.003H112.507V15.8641H107.003V10.4369H112.507V5.00977H107.003Z" fill="white"/>
</g>
</g>
</g>
<defs>
<clipPath id="clip0_150_1416">
<rect width="51.3495" height="16.2816" fill="white" transform="translate(77.6504 5.00977)"/>
</clipPath>
</defs>
</svg>
