<svg width="696" height="471" viewBox="0 0 696 471" fill="none" xmlns="http://www.w3.org/2000/svg">
<g clip-path="url(#clip0_848_8882)">
<mask id="mask0_848_8882" style="mask-type:luminance" maskUnits="userSpaceOnUse" x="0" y="251" width="696" height="220">
<path d="M696 251H0V471H696V251Z" fill="white"/>
</mask>
<g mask="url(#mask0_848_8882)">
<mask id="mask1_848_8882" style="mask-type:luminance" maskUnits="userSpaceOnUse" x="0" y="251" width="697" height="220">
<path d="M696.248 251H0V471H696.248V251Z" fill="white"/>
</mask>
<g mask="url(#mask1_848_8882)">
<path fill-rule="evenodd" clip-rule="evenodd" d="M0 251H74.5981V299.889H99.4638V275.444H124.33V251H198.928V324.333H174.062V348.778H149.196V373.222H174.062V397.667H198.928V471H124.33V446.556H99.4638V422.111H74.5981V471H0V251ZM497.321 251H571.919V299.889H596.785V275.444H621.65V251H696.248V324.333H671.383V348.778H646.517V373.222H671.383V397.667H696.248V471H621.65V446.556H596.785V422.111H571.919V471H497.321V251ZM223.794 251H298.392V471H223.794V251ZM397.856 251H348.125V275.444H323.258V446.556H348.125V471H397.856H472.454V397.667H397.856V324.333H472.454V251H397.856Z" fill="#D4E2EF" fill-opacity="0.2"/>
</g>
</g>
</g>
<g clip-path="url(#clip1_848_8882)">
<mask id="mask2_848_8882" style="mask-type:luminance" maskUnits="userSpaceOnUse" x="112" y="86" width="472" height="149">
<path d="M584 86H112V235H584V86Z" fill="white"/>
</mask>
<g mask="url(#mask2_848_8882)">
<mask id="mask3_848_8882" style="mask-type:luminance" maskUnits="userSpaceOnUse" x="112" y="86" width="473" height="149">
<path d="M584.168 86H112V235H584.168V86Z" fill="white"/>
</mask>
<g mask="url(#mask3_848_8882)">
<path fill-rule="evenodd" clip-rule="evenodd" d="M112 86H162.589V119.111H179.452V102.556H196.316V86H246.905V135.667H230.042V152.222H213.179V168.778H230.042V185.333H246.905V235H196.316V218.445H179.452V201.889H162.589V235H112V86ZM449.263 86H499.853V119.111H516.716V102.556H533.579V86H584.168V135.667H567.305V152.222H550.442V168.778H567.305V185.333H584.168V235H533.579V218.445H516.716V201.889H499.853V235H449.263V86ZM263.768 86H314.358V235H263.768V86ZM381.81 86H348.084V102.556H331.221V218.445H348.084V235H381.81H432.4V185.333H381.81V135.667H432.4V86H381.81Z" fill="#D4E2EF" fill-opacity="0.16"/>
</g>
</g>
</g>
<g clip-path="url(#clip2_848_8882)">
<mask id="mask4_848_8882" style="mask-type:luminance" maskUnits="userSpaceOnUse" x="231" y="0" width="234" height="74">
<path d="M465 0H231V74H465V0Z" fill="white"/>
</mask>
<g mask="url(#mask4_848_8882)">
<mask id="mask5_848_8882" style="mask-type:luminance" maskUnits="userSpaceOnUse" x="231" y="0" width="235" height="74">
<path d="M465.084 0H231V74H465.084V0Z" fill="white"/>
</mask>
<g mask="url(#mask5_848_8882)">
<path fill-rule="evenodd" clip-rule="evenodd" d="M231 0H256.08V16.4445H264.44V8.22221H272.801V0H297.881V24.6667H289.521V32.8888H281.161V41.1112H289.521V49.3333H297.881V74H272.801V65.7779H264.44V57.5555H256.08V74H231V0ZM398.203 0H423.283V16.4445H431.643V8.22221H440.003V0H465.084V24.6667H456.723V32.8888H448.363V41.1112H456.723V49.3333H465.084V74H440.003V65.7779H431.643V57.5555H423.283V74H398.203V0ZM306.241 0H331.322V74H306.241V0ZM364.762 0H348.042V8.22221H339.682V65.7779H348.042V74H364.762H389.842V49.3333H364.762V24.6667H389.842V0H364.762Z" fill="#D4E2EF" fill-opacity="0.06"/>
</g>
</g>
</g>
<defs>
<clipPath id="clip0_848_8882">
<rect width="696" height="220" fill="white" transform="translate(0 251)"/>
</clipPath>
<clipPath id="clip1_848_8882">
<rect width="472" height="149" fill="white" transform="translate(112 86)"/>
</clipPath>
<clipPath id="clip2_848_8882">
<rect width="234" height="74" fill="white" transform="translate(231)"/>
</clipPath>
</defs>
</svg>
