<svg width="70" height="22" viewBox="0 0 70 22" fill="none" xmlns="http://www.w3.org/2000/svg">
<path fill-rule="evenodd" clip-rule="evenodd" d="M0 0H7.50268V4.88889H10.0035V2.44444H12.5045V0H20.0072V7.33333H17.5062V9.77775H15.0054V12.2222H17.5062V14.6667H20.0072V22H12.5045V19.5556H10.0035V17.1111H7.50268V22H0V0ZM50.0179 0H57.5206V4.88889H60.0214V2.44444H62.5223V0H70.025V7.33333H67.5241V9.77775H65.0232V12.2222H67.5241V14.6667H70.025V22H62.5223V19.5556H60.0214V17.1111H57.5206V22H50.0179V0ZM22.508 0H30.0107V22H22.508V0ZM40.0143 0H35.0125V2.44444H32.5116V19.5556H35.0125V22H40.0143H47.5169V14.6667H40.0143V7.33333H47.5169V0H40.0143Z" fill="white"/>
</svg>
